<?xml version="1.0" encoding="UTF-8"?>
<svg width="1121px" height="778px" viewBox="0 0 1121 778" xmlns="http://www.w3.org/2000/svg" xmlns:xlink="http://www.w3.org/1999/xlink" version="1.1">
 <!-- Generated by Pixelmator Pro 1.5.5 -->
 <path id="Rectangle" d="M-27 845 L1194 845 1194 -35 -27 -35 Z" fill="#0096ff" fill-opacity="1" stroke="none"/>
 <path id="Path" d="M276.592 103 C276.592 138.346 247.938 167 212.592 167 177.246 167 148.592 138.346 148.592 103 148.592 67.654 177.246 39 212.592 39 247.938 39 276.592 67.654 276.592 103 Z" fill="#fffb00" fill-opacity="1" stroke="none"/>
 <path id="Path-1" d="M523.976 343.122 C523.976 494.133 434.202 546.861 323.46 546.861 212.719 546.861 122.945 494.133 122.945 343.122 122.945 192.11 323.46 0 323.46 0 323.46 0 523.976 192.11 523.976 343.122 Z" fill="#008f00" fill-opacity="1" stroke="none"/>
 <path id="Path-2" d="M316.156 523.761 L318.21 397.378 403.674 241.024 318.532 377.552 319.455 320.725 378.357 207.605 319.699 305.687 321.359 203.481 384.433 113.423 321.621 187.409 322.658 0 316.138 248.096 316.674 237.861 252.547 139.704 315.646 257.508 309.671 371.654 309.493 368.625 235.565 265.329 309.269 379.328 308.522 393.603 308.388 393.818 308.449 394.99 293.29 684.589 313.544 684.589 315.974 535.005 389.496 421.285 Z" fill="#3f3d56" fill-opacity="1" stroke="none"/>
 <path id="Path-3" d="M1120.592 404.972 C1120.592 528.582 1047.108 571.741 956.46 571.741 865.813 571.741 792.329 528.582 792.329 404.972 792.329 281.361 956.46 124.11 956.46 124.11 956.46 124.11 1120.592 281.361 1120.592 404.972 Z" fill="#4f8f00" fill-opacity="1" stroke="none"/>
 <path id="Path-4" d="M950.482 552.833 L952.162 449.383 1022.119 321.4 952.426 433.154 953.182 386.639 1001.396 294.044 953.382 374.329 954.741 290.669 1006.369 216.952 954.954 277.514 955.804 124.11 950.467 327.188 950.906 318.811 898.414 238.464 950.064 334.893 945.173 428.327 945.027 425.847 884.514 341.294 944.844 434.608 944.232 446.293 944.123 446.469 944.173 447.428 931.764 684.478 948.343 684.478 950.332 562.037 1010.514 468.952 Z" fill="#3f3d56" fill-opacity="1" stroke="none"/>
 <path id="Path-5" d="M1109.184 680.479 C1109.184 695.962 860.885 708.513 554.592 708.513 248.299 708.513 0 695.962 0 680.479 0 664.996 248.299 652.445 554.592 652.445 860.885 652.445 1109.184 664.996 1109.184 680.479 Z" fill="#3f3d56" fill-opacity="1" stroke="none"/>
 <path id="Path-6" d="M987.433 726.797 C987.433 729.448 944.906 731.598 892.445 731.598 839.984 731.598 797.456 729.448 797.456 726.797 797.456 724.145 839.984 721.995 892.445 721.995 944.906 721.995 987.433 724.145 987.433 726.797 Z" fill="#3f3d56" fill-opacity="1" stroke="none"/>
 <path id="Path-7" d="M643.708 773.114 C643.708 775.766 601.18 777.916 548.719 777.916 496.259 777.916 453.731 775.766 453.731 773.114 453.731 770.462 496.259 768.313 548.719 768.313 601.18 768.313 643.708 770.462 643.708 773.114 Z" fill="#3f3d56" fill-opacity="1" stroke="none"/>
 <path id="Path-8" d="M504.958 734.279 C504.958 740.337 407.798 745.249 287.944 745.249 168.09 745.249 70.93 740.337 70.93 734.279 70.93 728.22 168.09 723.309 287.944 723.309 407.798 723.309 504.958 728.22 504.958 734.279 Z" fill="#3f3d56" fill-opacity="1" stroke="none"/>
 <path id="Path-9" d="M176.084 566.27 C176.084 609.9 140.714 645.27 97.084 645.27 53.453 645.27 18.084 609.9 18.084 566.27 18.084 522.639 53.453 487.27 97.084 487.27 140.714 487.27 176.084 522.639 176.084 566.27 Z" fill="#2f2e41" fill-opacity="1" stroke="none"/>
 <path id="Path-10" d="M60.356 627.841 L84.354 628.124 83.847 671.121 59.849 670.838 Z" fill="#2f2e41" fill-opacity="1" stroke="none"/>
 <path id="Path-11" d="M108.352 628.407 L132.351 628.69 131.844 671.687 107.846 671.404 Z" fill="#2f2e41" fill-opacity="1" stroke="none"/>
 <path id="Path-12" d="M79.93 664.075 C90.975 664.205 99.889 667.668 99.84 671.81 99.792 675.952 90.798 679.204 79.753 679.074 68.708 678.943 59.794 675.48 59.843 671.338 59.892 667.197 68.885 663.944 79.93 664.075 Z" fill="#2f2e41" fill-opacity="1" stroke="none"/>
 <path id="Path-13" d="M127.938 663.64 C138.983 663.77 147.898 667.234 147.849 671.375 147.8 675.517 138.807 678.769 127.762 678.639 116.717 678.509 107.803 675.046 107.852 670.904 107.9 666.762 116.894 663.51 127.938 663.64 Z" fill="#2f2e41" fill-opacity="1" stroke="none"/>
 <path id="Path-14" d="M126.319 546.295 C126.319 561.206 114.231 573.295 99.319 573.295 84.407 573.295 72.319 561.206 72.319 546.295 72.319 531.383 84.407 519.295 99.319 519.295 114.231 519.295 126.319 531.383 126.319 546.295 Z" fill="#ffffff" fill-opacity="1" stroke="none"/>
 <path id="Path-15" d="M108.319 546.295 C108.319 551.265 104.29 555.295 99.319 555.295 94.349 555.295 90.319 551.265 90.319 546.295 90.319 541.324 94.349 537.295 99.319 537.295 104.29 537.295 108.319 541.324 108.319 546.295 Z" fill="#3f3d56" fill-opacity="1" stroke="none"/>
 <path id="Path-16" d="M21.322 491.904 C15.28 463.264 36.009 434.64 67.622 427.971 99.235 421.302 129.76 439.114 135.802 467.754 141.844 496.395 120.824 506.684 89.211 513.353 57.598 520.022 27.364 520.545 21.322 491.904 Z" fill="#929292" fill-opacity="1" stroke="none"/>
 <path id="Path-17" d="M217.592 610.342 C217.592 665.418 184.852 684.648 144.462 684.648 Q143.059 684.648 141.66 684.617 C139.788 684.577 137.935 684.488 136.103 684.363 99.652 681.783 71.332 661.564 71.332 610.342 71.332 557.334 139.071 490.446 144.159 485.496 L144.168 485.487 C144.364 485.295 144.462 485.202 144.462 485.202 144.462 485.202 217.592 555.266 217.592 610.342 Z" fill="#009051" fill-opacity="1" stroke="none"/>
 <path id="Path-18" d="M141.798 676.223 L168.545 638.849 141.731 680.326 141.66 684.617 C139.788 684.577 137.935 684.488 136.103 684.363 L138.986 629.261 138.964 628.833 139.013 628.753 139.285 623.548 112.404 581.969 139.369 619.645 139.432 620.75 141.61 579.117 118.597 536.152 141.891 571.81 144.159 485.496 144.168 485.202 144.168 485.487 143.789 553.551 166.7 526.568 143.696 559.414 143.09 596.69 164.481 560.916 143.001 602.175 142.662 622.898 173.718 573.106 142.546 630.13 Z" fill="#3f3d56" fill-opacity="1" stroke="none"/>
 <path id="Path-19" d="M791.485 565.415 C791.485 609.046 756.115 644.415 712.485 644.415 668.854 644.415 633.485 609.046 633.485 565.415 633.485 521.785 668.854 486.415 712.485 486.415 756.115 486.415 791.485 521.785 791.485 565.415 Z" fill="#2f2e41" fill-opacity="1" stroke="none"/>
 <path id="Path-20" d="M696.287 635.255 L719.228 628.205 731.859 669.307 708.918 676.358 Z" fill="#2f2e41" fill-opacity="1" stroke="none"/>
 <path id="Path-21" d="M742.168 621.159 L765.109 614.109 777.74 655.212 754.799 662.262 Z" fill="#2f2e41" fill-opacity="1" stroke="none"/>
 <path id="Path-22" d="M747.301 665.085 C748.517 669.045 740.945 674.885 730.386 678.13 719.828 681.375 710.282 680.795 709.065 676.836 707.849 672.877 715.421 667.036 725.98 663.792 736.538 660.547 746.084 661.126 747.301 665.085 Z" fill="#2f2e41" fill-opacity="1" stroke="none"/>
 <path id="Path-23" d="M792.889 650.029 C794.106 653.988 786.533 659.828 775.975 663.073 765.416 666.318 755.871 665.739 754.654 661.779 753.437 657.82 761.01 651.98 771.568 648.735 782.126 645.49 791.672 646.069 792.889 650.029 Z" fill="#2f2e41" fill-opacity="1" stroke="none"/>
 <path id="Path-24" d="M735.521 545.71 C735.521 560.622 723.433 572.71 708.521 572.71 693.61 572.71 681.521 560.622 681.521 545.71 681.521 530.798 693.61 518.71 708.521 518.71 723.433 518.71 735.521 530.798 735.521 545.71 Z" fill="#ffffff" fill-opacity="1" stroke="none"/>
 <path id="Path-25" d="M717.521 545.71 C717.521 550.681 713.492 554.71 708.521 554.71 703.551 554.71 699.521 550.681 699.521 545.71 699.521 540.74 703.551 536.71 708.521 536.71 713.492 536.71 717.521 540.74 717.521 545.71 Z" fill="#3f3d56" fill-opacity="1" stroke="none"/>
 <path id="Path-26" d="M617.651 517.701 C603.161 492.268 614.173 458.685 642.245 442.692 670.318 426.699 704.821 434.351 719.311 459.785 733.8 485.218 716.92 501.428 688.848 517.421 660.775 533.415 632.141 543.134 617.651 517.701 Z" fill="#797979" fill-opacity="1" stroke="none"/>
 <path id="Path-27" d="M571.592 600.257 C571.592 650.814 541.538 668.466 504.462 668.466 Q503.174 668.466 501.89 668.438 C500.172 668.401 498.47 668.319 496.789 668.205 463.328 665.836 437.332 647.276 437.332 600.257 437.332 551.597 499.513 490.198 504.184 485.653 L504.192 485.645 C504.372 485.469 504.462 485.383 504.462 485.383 504.462 485.383 571.592 549.699 571.592 600.257 Z" fill="#00f900" fill-opacity="1" stroke="none"/>
 <path id="Path-28" d="M502.016 660.732 L526.569 626.425 501.955 664.499 501.889 668.438 C500.172 668.401 498.47 668.319 496.789 668.205 L499.435 617.623 499.415 617.23 499.46 617.157 499.709 612.38 475.034 574.211 499.787 608.797 499.844 609.811 501.844 571.594 480.719 532.153 502.102 564.886 504.184 485.653 504.192 485.383 504.192 485.645 503.844 548.125 524.875 523.355 503.758 553.507 503.202 587.725 522.839 554.886 503.12 592.76 502.81 611.782 531.317 566.076 502.703 618.421 Z" fill="#3f3d56" fill-opacity="1" stroke="none"/>
 <path id="Path-29" d="M835.592 621.342 C835.592 676.418 802.852 695.648 762.462 695.648 Q761.059 695.648 759.66 695.617 C757.788 695.577 755.935 695.488 754.103 695.363 717.652 692.783 689.332 672.564 689.332 621.342 689.332 568.334 757.071 501.446 762.159 496.496 L762.168 496.487 C762.364 496.295 762.462 496.202 762.462 496.202 762.462 496.202 835.592 566.266 835.592 621.342 Z" fill="#009051" fill-opacity="1" stroke="none"/>
 <path id="Path-30" d="M759.798 687.223 L786.545 649.849 759.731 691.326 759.66 695.617 C757.788 695.577 755.935 695.488 754.103 695.363 L756.986 640.261 756.964 639.833 757.013 639.753 757.285 634.548 730.404 592.969 757.369 630.645 757.432 631.75 759.611 590.117 736.597 547.152 759.891 582.81 762.159 496.496 762.168 496.202 762.168 496.487 761.789 564.551 784.7 537.568 761.696 570.414 761.09 607.69 782.481 571.916 761.001 613.175 760.662 633.898 791.718 584.106 760.546 641.13 Z" fill="#3f3d56" fill-opacity="1" stroke="none"/>
 <path id="Path-31" d="M687.127 584.576 C706.837 593.924 720.437 606.519 717.502 612.707 714.567 618.895 696.21 616.333 676.499 606.984 656.788 597.635 643.189 585.041 646.123 578.853 649.058 572.665 667.416 575.228 687.127 584.576 Z" fill="#2f2e41" fill-opacity="1" stroke="none"/>
 <path id="Path-32" d="M77.426 579.27 C97.676 587.386 112.025 599.119 109.477 605.476 106.929 611.833 88.449 610.406 68.199 602.29 47.95 594.174 33.6 582.441 36.148 576.084 38.696 569.727 57.177 571.154 77.426 579.27 Z" fill="#2f2e41" fill-opacity="1" stroke="none"/>
</svg>
